<?xml version="1.0" ?><!DOCTYPE svg  PUBLIC '-//W3C//DTD SVG 1.1//EN'  'http://www.w3.org/Graphics/SVG/1.1/DTD/svg11.dtd'><svg enable-background="new 0 0 155.475 155.475" height="155.475" id="Layer_1" overflow="visible" version="1.1" viewBox="0 0 155.475 155.475" width="155.475" xml:space="preserve" xmlns="http://www.w3.org/2000/svg" xmlns:xlink="http://www.w3.org/1999/xlink"><g id="icon"><circle cx="77.737" cy="77.737" fill="#5175A8" r="77.737"/><path d="M74.908,121.575c-11.374,0-21.878-3.879-29.58-10.904c-8.213-7.481-12.547-17.751-12.547-29.673   c0-13.261,4.886-25.614,13.748-34.779c9.275-9.59,22.333-14.869,36.777-14.869c11.739,0,21.843,3.696,29.228,10.69   c7.185,6.805,11.139,16.387,11.139,26.978c0,20.425-12.608,31.114-25.065,31.114c-3.603,0-6.226-0.903-8.02-2.753   c-1.098-1.132-1.856-2.65-2.264-4.5l-0.29-1.353l-0.884,1.076c-4.899,5.977-11.028,8.876-18.709,8.876   c-8.247,0-16.584-6.156-16.584-17.924c0-8.412,3.589-16.732,9.849-22.822c6.577-6.401,15.542-9.928,25.238-9.928   c4.604,0,9.311,0.697,13.251,1.96c1.933,0.618,3.078,2.591,2.678,4.596L98.483,79.1c-0.953,4.497-1.857,9.907-0.4,11.763   c0.289,0.359,0.835,0.85,2.318,0.891l0.249,0.007c6.404,0,13.243-8.785,13.243-21.86c0-18.844-12.133-30.553-31.67-30.553   c-22.899,0-39.525,17.198-39.525,40.894c0,19.786,13.548,33.079,33.7,33.079c5.936,0,12.471-1.298,17.937-3.541   c0.11-0.041,0.242-0.069,0.353-0.069c0.814,0,1.49,1.471,2.208,3.017l0.11,0.255c0.11,0.228,0.221,0.449,0.324,0.677   c0.553,1.139,1.07,2.208,0.794,2.933c-0.159,0.407-0.58,0.746-1.298,1.035C90.401,120.319,83.438,121.575,74.908,121.575z    M84.791,61.04c-11.07,0-20.429,9.89-20.429,21.598c0,1.987,0.566,8.488,7.84,8.488c6.95,0,14.009-8.737,15.438-16.26l2.299-11.418   c0.096-0.486,0-0.98-0.29-1.391c-0.283-0.411-0.711-0.676-1.201-0.752C87.316,61.129,86.081,61.04,84.791,61.04z" fill="#FFFFFF"/></g></svg>